<?xml version="1.0" encoding="iso-8859-1"?>
<!-- Generator: Adobe Illustrator 19.0.0, SVG Export Plug-In . SVG Version: 6.00 Build 0)  -->
<svg version="1.1" id="Layer_1" xmlns="http://www.w3.org/2000/svg" xmlns:xlink="http://www.w3.org/1999/xlink" x="0px" y="0px"
	 viewBox="0 0 495 495" style="enable-background:new 0 0 495 495;" xml:space="preserve">
<g>
	<path style="fill:#FF7956;" d="M207.5,247.5c0-22.056,17.944-40,40-40V0H0v495h247.5V287.5
		C225.444,287.5,207.5,269.556,207.5,247.5z M123.75,411.25c-22.056,0-40-17.944-40-40s17.944-40,40-40s40,17.944,40,40
		S145.806,411.25,123.75,411.25z"/>
	<path style="fill:#FF5023;" d="M247.5,0v207.5c22.056,0,40,17.944,40,40s-17.944,40-40,40V495H495V0H247.5z M371.25,163.75
		c-22.056,0-40-17.944-40-40s17.944-40,40-40s40,17.944,40,40S393.306,163.75,371.25,163.75z"/>
	<path style="fill:#FFEB99;" d="M123.75,331.25c-22.056,0-40,17.944-40,40s17.944,40,40,40s40-17.944,40-40
		S145.806,331.25,123.75,331.25z"/>
	<path style="fill:#FFC477;" d="M207.5,247.5c0,22.056,17.944,40,40,40c22.056,0,40-17.944,40-40s-17.944-40-40-40
		C225.444,207.5,207.5,225.444,207.5,247.5z"/>
	<path style="fill:#FFC477;" d="M371.25,83.75c-22.056,0-40,17.944-40,40s17.944,40,40,40s40-17.944,40-40
		S393.306,83.75,371.25,83.75z"/>
</g>
<g>
</g>
<g>
</g>
<g>
</g>
<g>
</g>
<g>
</g>
<g>
</g>
<g>
</g>
<g>
</g>
<g>
</g>
<g>
</g>
<g>
</g>
<g>
</g>
<g>
</g>
<g>
</g>
<g>
</g>
</svg>
